<svg width="24" height="24" viewBox="0 0 24 24" fill="none" xmlns="http://www.w3.org/2000/svg">
<path d="M12 7.83301V19.4997" stroke="#888888" stroke-width="1.3" stroke-linecap="round" stroke-linejoin="round"/>
<path d="M3 17C2.73478 17 2.48043 16.9122 2.29289 16.7559C2.10536 16.5996 2 16.3877 2 16.1667V5.33333C2 5.11232 2.10536 4.90036 2.29289 4.74408C2.48043 4.5878 2.73478 4.5 3 4.5H8C9.06087 4.5 10.0783 4.85119 10.8284 5.47631C11.5786 6.10143 12 6.94928 12 7.83333C12 6.94928 12.4214 6.10143 13.1716 5.47631C13.9217 4.85119 14.9391 4.5 16 4.5H21C21.2652 4.5 21.5196 4.5878 21.7071 4.74408C21.8946 4.90036 22 5.11232 22 5.33333V16.1667C22 16.3877 21.8946 16.5996 21.7071 16.7559C21.5196 16.9122 21.2652 17 21 17H15C14.2044 17 13.4413 17.2634 12.8787 17.7322C12.3161 18.2011 12 18.837 12 19.5C12 18.837 11.6839 18.2011 11.1213 17.7322C10.5587 17.2634 9.79565 17 9 17H3Z" stroke="#888888" stroke-width="1.3" stroke-linecap="round" stroke-linejoin="round"/>
</svg>
