<svg width="24" height="24" viewBox="0 0 24 24" fill="none" xmlns="http://www.w3.org/2000/svg">
<path d="M16.5422 20.472C17.5141 19.5149 18 18.3529 18 16.9861C18 15.6194 17.5141 14.4578 16.5422 13.5014C15.5704 12.545 14.3896 12.0665 13 12.0657C11.6104 12.065 10.43 12.5436 9.45889 13.5014C8.48778 14.4592 8.00148 15.6208 8 16.9861C7.99852 18.3515 8.48481 19.5134 9.45889 20.472C10.433 21.4306 11.6133 21.9088 13 21.9066C14.3867 21.9044 15.5674 21.4262 16.5422 20.472ZM9.79333 11.8853C10.1489 11.6564 10.5278 11.4724 10.93 11.3331C11.333 11.1939 11.7474 11.0918 12.1733 11.027L9.64444 6.09343H6.86667L9.79333 11.8853ZM16.2067 11.8853L19.16 6.09343H16.3556L13.93 10.8247L14.0522 11.0652C14.4396 11.1381 14.8144 11.2402 15.1767 11.3714C15.5381 11.5026 15.8819 11.6739 16.2078 11.8853M7.69778 20.7421C7.71037 20.6196 7.73926 20.4847 7.78444 20.3375C7.82889 20.1888 7.89407 20.0321 7.98 19.8673C7.63778 19.3228 7.39074 18.7349 7.23889 18.1036C7.08704 17.4724 7.04778 16.8225 7.12111 16.154C7.12111 15.6073 7.21741 15.0883 7.41 14.597C7.60185 14.1064 7.86852 13.665 8.21 13.2729C7.94556 13.3173 7.71259 13.4106 7.51111 13.5528C7.31111 13.6957 7.16815 13.8659 7.08222 14.0634C6.2563 14.261 5.61222 14.7184 5.15 15.4357C4.68852 16.1522 4.54778 16.9468 4.72778 17.8193C4.72778 18.6321 5.0163 19.3224 5.59333 19.8903C6.16963 20.4574 6.87111 20.7421 7.69778 20.7421ZM18.3044 20.741C19.3104 20.6827 20.1593 20.2949 20.8511 19.5776C21.5437 18.861 21.89 17.9972 21.89 16.9861C21.89 15.9751 21.5437 15.1113 20.8511 14.3947C20.1585 13.6782 19.3096 13.29 18.3044 13.2302C18.2193 13.2302 18.1341 13.2339 18.0489 13.2412C17.963 13.2484 17.877 13.259 17.7911 13.2729C18.2059 13.7875 18.5296 14.3605 18.7622 14.9917C18.9956 15.623 19.1122 16.2878 19.1122 16.9861C19.1122 17.6845 18.9959 18.3493 18.7633 18.9806C18.53 19.6118 18.2063 20.1848 17.7922 20.6994C17.8774 20.714 17.9626 20.7246 18.0478 20.7311C18.1337 20.7384 18.2193 20.741 18.3044 20.741ZM10.9822 22.6752C10.3496 22.4587 9.77482 22.1471 9.25778 21.7404C9.06222 21.8045 8.8563 21.8483 8.64 21.8716C8.4237 21.8949 8.20148 21.9066 7.97333 21.9066C6.60148 21.9066 5.43 21.4287 4.45889 20.4731C3.48778 19.5174 3.00148 18.3642 3 17.0135C3 15.6802 3.47296 14.5398 4.41889 13.5921C5.36481 12.6445 6.51074 12.1561 7.85667 12.127C8.0137 12.127 8.16333 12.1375 8.30556 12.1587C8.44778 12.1791 8.59 12.2035 8.73222 12.2319L5.05111 5.00109H10.3511L13 10.2156L15.65 5H20.9489L17.3156 12.1565C17.4444 12.1281 17.5767 12.1069 17.7122 12.0931C17.847 12.0785 17.9859 12.0712 18.1289 12.0712C19.4889 12.1055 20.6407 12.5964 21.5844 13.544C22.5281 14.4917 23 15.639 23 16.9861C23 18.3544 22.5144 19.5167 21.5433 20.4731C20.5722 21.4295 19.3911 21.9073 18 21.9066C17.7763 21.9066 17.5589 21.8949 17.3478 21.8716C17.1367 21.8483 16.933 21.8045 16.7367 21.7404C16.2204 22.1333 15.6463 22.4413 15.0144 22.6643C14.3826 22.8874 13.7111 22.9993 13 23C12.2889 23.0007 11.6163 22.8925 10.9822 22.6752ZM11.2656 19.4879L11.9144 17.3787L10.18 16.1617H12.3233L13 13.9377L13.6778 16.1617H15.8211L14.0856 17.3798L14.7356 19.489L13 18.1889L11.2656 19.4879Z" fill="#888888"/>
</svg>
