<svg width="207" height="48" viewBox="0 0 207 48" fill="none" xmlns="http://www.w3.org/2000/svg">
<mask id="path-1-outside-1_3005_7087" maskUnits="userSpaceOnUse" x="2" y="6" width="62" height="36" fill="black">
<rect fill="white" x="2" y="6" width="62" height="36"/>
<path d="M22.8011 41L11.4731 26.12V41H3.26506V7.304H11.4731V22.088L22.7051 7.304H32.3531L19.2971 23.816L32.8331 41H22.8011ZM62.4138 18.152C62.4138 20.104 61.9658 21.896 61.0698 23.528C60.1738 25.128 58.7978 26.424 56.9418 27.416C55.0858 28.408 52.7818 28.904 50.0298 28.904H44.9418V41H36.7338V7.304H50.0298C52.7178 7.304 54.9898 7.768 56.8458 8.696C58.7018 9.624 60.0938 10.904 61.0218 12.536C61.9498 14.168 62.4138 16.04 62.4138 18.152ZM49.4058 22.376C50.9738 22.376 52.1418 22.008 52.9098 21.272C53.6778 20.536 54.0618 19.496 54.0618 18.152C54.0618 16.808 53.6778 15.768 52.9098 15.032C52.1418 14.296 50.9738 13.928 49.4058 13.928H44.9418V22.376H49.4058Z"/>
</mask>
<path d="M22.8011 41L11.4731 26.12V41H3.26506V7.304H11.4731V22.088L22.7051 7.304H32.3531L19.2971 23.816L32.8331 41H22.8011ZM62.4138 18.152C62.4138 20.104 61.9658 21.896 61.0698 23.528C60.1738 25.128 58.7978 26.424 56.9418 27.416C55.0858 28.408 52.7818 28.904 50.0298 28.904H44.9418V41H36.7338V7.304H50.0298C52.7178 7.304 54.9898 7.768 56.8458 8.696C58.7018 9.624 60.0938 10.904 61.0218 12.536C61.9498 14.168 62.4138 16.04 62.4138 18.152ZM49.4058 22.376C50.9738 22.376 52.1418 22.008 52.9098 21.272C53.6778 20.536 54.0618 19.496 54.0618 18.152C54.0618 16.808 53.6778 15.768 52.9098 15.032C52.1418 14.296 50.9738 13.928 49.4058 13.928H44.9418V22.376H49.4058Z" fill="url(#paint0_linear_3005_7087)"/>
<path d="M22.8011 41L22.0054 41.6057L22.3055 42H22.8011V41ZM11.4731 26.12L12.2687 25.5143L10.4731 23.1556V26.12H11.4731ZM11.4731 41V42H12.4731V41H11.4731ZM3.26506 41H2.26506V42H3.26506V41ZM3.26506 7.304V6.304H2.26506V7.304H3.26506ZM11.4731 7.304H12.4731V6.304H11.4731V7.304ZM11.4731 22.088H10.4731V25.0573L12.2693 22.693L11.4731 22.088ZM22.7051 7.304V6.304H22.2089L21.9088 6.69905L22.7051 7.304ZM32.3531 7.304L33.1375 7.92424L34.4186 6.304H32.3531V7.304ZM19.2971 23.816L18.5126 23.1958L18.0232 23.8148L18.5115 24.4348L19.2971 23.816ZM32.8331 41V42H34.8938L33.6186 40.3812L32.8331 41ZM22.8011 41L23.5967 40.3943L12.2687 25.5143L11.4731 26.12L10.6774 26.7257L22.0054 41.6057L22.8011 41ZM11.4731 26.12H10.4731V41H11.4731H12.4731V26.12H11.4731ZM11.4731 41V40H3.26506V41V42H11.4731V41ZM3.26506 41H4.26506V7.304H3.26506H2.26506V41H3.26506ZM3.26506 7.304V8.304H11.4731V7.304V6.304H3.26506V7.304ZM11.4731 7.304H10.4731V22.088H11.4731H12.4731V7.304H11.4731ZM11.4731 22.088L12.2693 22.693L23.5013 7.90895L22.7051 7.304L21.9088 6.69905L10.6768 21.483L11.4731 22.088ZM22.7051 7.304V8.304H32.3531V7.304V6.304H22.7051V7.304ZM32.3531 7.304L31.5686 6.68376L18.5126 23.1958L19.2971 23.816L20.0815 24.4362L33.1375 7.92424L32.3531 7.304ZM19.2971 23.816L18.5115 24.4348L32.0475 41.6188L32.8331 41L33.6186 40.3812L20.0826 23.1972L19.2971 23.816ZM32.8331 41V40H22.8011V41V42H32.8331V41ZM61.0698 23.528L61.9424 24.0166L61.9464 24.0093L61.0698 23.528ZM56.9418 27.416L56.4704 26.5341V26.5341L56.9418 27.416ZM44.9418 28.904V27.904H43.9418V28.904H44.9418ZM44.9418 41V42H45.9418V41H44.9418ZM36.7338 41H35.7338V42H36.7338V41ZM36.7338 7.304V6.304H35.7338V7.304H36.7338ZM56.8458 8.696L57.293 7.80157V7.80157L56.8458 8.696ZM44.9418 13.928V12.928H43.9418V13.928H44.9418ZM44.9418 22.376H43.9418V23.376H44.9418V22.376ZM62.4138 18.152H61.4138C61.4138 19.9442 61.0043 21.5695 60.1932 23.0467L61.0698 23.528L61.9464 24.0093C62.9273 22.2225 63.4138 20.2638 63.4138 18.152H62.4138ZM61.0698 23.528L60.1973 23.0394C59.4079 24.4491 58.1834 25.6185 56.4704 26.5341L56.9418 27.416L57.4132 28.2979C59.4122 27.2295 60.9398 25.8069 61.9423 24.0166L61.0698 23.528ZM56.9418 27.416L56.4704 26.5341C54.7972 27.4284 52.6663 27.904 50.0298 27.904V28.904V29.904C52.8973 29.904 55.3744 29.3876 57.4132 28.2979L56.9418 27.416ZM50.0298 28.904V27.904H44.9418V28.904V29.904H50.0298V28.904ZM44.9418 28.904H43.9418V41H44.9418H45.9418V28.904H44.9418ZM44.9418 41V40H36.7338V41V42H44.9418V41ZM36.7338 41H37.7338V7.304H36.7338H35.7338V41H36.7338ZM36.7338 7.304V8.304H50.0298V7.304V6.304H36.7338V7.304ZM50.0298 7.304V8.304C52.6068 8.304 54.7163 8.74926 56.3986 9.59043L56.8458 8.696L57.293 7.80157C55.2634 6.78674 52.8288 6.304 50.0298 6.304V7.304ZM56.8458 8.696L56.3986 9.59043C58.0968 10.4395 59.3327 11.5885 60.1525 13.0303L61.0218 12.536L61.8911 12.0417C60.8549 10.2195 59.3068 8.80848 57.293 7.80157L56.8458 8.696ZM61.0218 12.536L60.1525 13.0303C60.9846 14.4935 61.4138 16.1912 61.4138 18.152H62.4138H63.4138C63.4138 15.8888 62.9151 13.8424 61.8911 12.0417L61.0218 12.536ZM49.4058 22.376V23.376C51.1108 23.376 52.5755 22.9774 53.6017 21.994L52.9098 21.272L52.2179 20.55C51.7081 21.0386 50.8368 21.376 49.4058 21.376V22.376ZM52.9098 21.272L53.6017 21.994C54.6154 21.0225 55.0618 19.6925 55.0618 18.152H54.0618H53.0618C53.0618 19.2995 52.7402 20.0495 52.2179 20.55L52.9098 21.272ZM54.0618 18.152H55.0618C55.0618 16.6115 54.6154 15.2815 53.6017 14.31L52.9098 15.032L52.2179 15.754C52.7402 16.2545 53.0618 17.0045 53.0618 18.152H54.0618ZM52.9098 15.032L53.6017 14.31C52.5755 13.3266 51.1108 12.928 49.4058 12.928V13.928V14.928C50.8368 14.928 51.7081 15.2654 52.2179 15.754L52.9098 15.032ZM49.4058 13.928V12.928H44.9418V13.928V14.928H49.4058V13.928ZM44.9418 13.928H43.9418V22.376H44.9418H45.9418V13.928H44.9418ZM44.9418 22.376V23.376H49.4058V22.376V21.376H44.9418V22.376Z" fill="#EEEEEE" mask="url(#path-1-outside-1_3005_7087)"/>
<path d="M89.4523 13.928C92.5883 13.928 95.0843 14.952 96.9403 17C98.8283 19.016 99.7723 21.8 99.7723 25.352V41H91.6123V26.456C91.6123 24.664 91.1483 23.272 90.2203 22.28C89.2923 21.288 88.0443 20.792 86.4763 20.792C84.9083 20.792 83.6603 21.288 82.7323 22.28C81.8043 23.272 81.3403 24.664 81.3403 26.456V41H73.1323V14.216H81.3403V17.768C82.1723 16.584 83.2923 15.656 84.7003 14.984C86.1083 14.28 87.6923 13.928 89.4523 13.928ZM117.668 41.384C115.044 41.384 112.676 40.824 110.564 39.704C108.484 38.584 106.836 36.984 105.62 34.904C104.436 32.824 103.844 30.392 103.844 27.608C103.844 24.856 104.452 22.44 105.668 20.36C106.884 18.248 108.548 16.632 110.66 15.512C112.772 14.392 115.14 13.832 117.764 13.832C120.388 13.832 122.756 14.392 124.868 15.512C126.98 16.632 128.644 18.248 129.86 20.36C131.076 22.44 131.684 24.856 131.684 27.608C131.684 30.36 131.06 32.792 129.812 34.904C128.596 36.984 126.916 38.584 124.772 39.704C122.66 40.824 120.292 41.384 117.668 41.384ZM117.668 34.28C119.236 34.28 120.564 33.704 121.652 32.552C122.772 31.4 123.332 29.752 123.332 27.608C123.332 25.464 122.788 23.816 121.7 22.664C120.644 21.512 119.332 20.936 117.764 20.936C116.164 20.936 114.836 21.512 113.78 22.664C112.724 23.784 112.196 25.432 112.196 27.608C112.196 29.752 112.708 31.4 113.732 32.552C114.788 33.704 116.1 34.28 117.668 34.28ZM148.087 33.32L153.895 14.216H162.631L153.127 41H142.999L133.495 14.216H142.279L148.087 33.32ZM191.333 27.176C191.333 27.944 191.285 28.744 191.189 29.576H172.613C172.741 31.24 173.269 32.52 174.197 33.416C175.157 34.28 176.325 34.712 177.701 34.712C179.749 34.712 181.173 33.848 181.973 32.12H190.709C190.261 33.88 189.445 35.464 188.261 36.872C187.109 38.28 185.653 39.384 183.893 40.184C182.133 40.984 180.165 41.384 177.989 41.384C175.365 41.384 173.029 40.824 170.981 39.704C168.933 38.584 167.333 36.984 166.181 34.904C165.029 32.824 164.453 30.392 164.453 27.608C164.453 24.824 165.013 22.392 166.133 20.312C167.285 18.232 168.885 16.632 170.933 15.512C172.981 14.392 175.333 13.832 177.989 13.832C180.581 13.832 182.885 14.376 184.901 15.464C186.917 16.552 188.485 18.104 189.605 20.12C190.757 22.136 191.333 24.488 191.333 27.176ZM182.933 25.016C182.933 23.608 182.453 22.488 181.493 21.656C180.533 20.824 179.333 20.408 177.893 20.408C176.517 20.408 175.349 20.808 174.389 21.608C173.461 22.408 172.885 23.544 172.661 25.016H182.933ZM203.872 5.48V41H195.664V5.48H203.872Z" fill="white"/>
<defs>
<linearGradient id="paint0_linear_3005_7087" x1="32" y1="0" x2="32" y2="48" gradientUnits="userSpaceOnUse">
<stop stop-color="#9BFFFB"/>
<stop offset="1" stop-color="#D0B3FF"/>
</linearGradient>
</defs>
</svg>
