<svg width="32" height="32" viewBox="0 0 32 32" fill="none" xmlns="http://www.w3.org/2000/svg">
<path d="M26.6667 10.667H5.33333C4.59695 10.667 4 11.2639 4 12.0003V14.667C4 15.4034 4.59695 16.0003 5.33333 16.0003H26.6667C27.403 16.0003 28 15.4034 28 14.667V12.0003C28 11.2639 27.403 10.667 26.6667 10.667Z" stroke="white" stroke-width="2.66667" stroke-linecap="round" stroke-linejoin="round"/>
<path d="M16 10.667V28.0003" stroke="white" stroke-width="2.66667" stroke-linecap="round" stroke-linejoin="round"/>
<path d="M25.3334 16V25.3333C25.3334 26.0406 25.0525 26.7189 24.5524 27.219C24.0523 27.719 23.374 28 22.6667 28H9.33341C8.62617 28 7.94789 27.719 7.4478 27.219C6.9477 26.7189 6.66675 26.0406 6.66675 25.3333V16" stroke="white" stroke-width="2.66667" stroke-linecap="round" stroke-linejoin="round"/>
<path d="M10.0001 10.6663C9.11603 10.6663 8.26818 10.3151 7.64306 9.68996C7.01794 9.06484 6.66675 8.21699 6.66675 7.33294C6.66675 6.44888 7.01794 5.60104 7.64306 4.97592C8.26818 4.3508 9.11603 3.99961 10.0001 3.99961C11.2863 3.9772 12.5468 4.60129 13.6171 5.79049C14.6873 6.97969 15.5178 8.67881 16.0001 10.6663C16.4824 8.67881 17.3128 6.97969 18.3831 5.79049C19.4534 4.60129 20.7138 3.9772 22.0001 3.99961C22.8841 3.99961 23.732 4.3508 24.3571 4.97592C24.9822 5.60104 25.3334 6.44888 25.3334 7.33294C25.3334 8.21699 24.9822 9.06484 24.3571 9.68996C23.732 10.3151 22.8841 10.6663 22.0001 10.6663" stroke="white" stroke-width="2.66667" stroke-linecap="round" stroke-linejoin="round"/>
</svg>
