<svg width="60" height="60" viewBox="0 0 60 60" fill="none" xmlns="http://www.w3.org/2000/svg">
<path d="M32.925 47.2453L55.6828 49.4109C57.825 49.6172 58.3735 48.4219 58.3735 47.4094L58.35 46.1812L30.361 42.2344C30.361 43.6359 31.5 47.2453 32.925 47.2453Z" fill="#C62828"/>
<path d="M33.7547 46.177L37.3359 46.491L56.5125 48.3426C57.5437 48.3426 58.3734 47.5223 58.3734 46.5098L57.3562 15.4504C57.3562 14.4379 56.5219 13.6176 55.4953 13.6176L33.7547 11.5645C32.3297 11.5645 31.1719 12.7035 31.1719 14.1051V43.6363C31.1719 45.0379 32.325 46.177 33.7547 46.177Z" fill="#F44336"/>
<path d="M27.075 47.2451L4.31718 49.4107C2.17499 49.617 1.62656 48.4217 1.62656 47.4092L1.64999 46.1811L29.6391 42.2295C29.6391 43.6357 28.5 47.2451 27.075 47.2451Z" fill="#C62828"/>
<path d="M26.2453 46.1762L22.6922 46.4902L3.48749 48.3465C2.45624 48.3465 1.62656 47.5262 1.62656 46.5137L2.64374 15.4543C2.64374 14.4418 3.47812 13.6215 4.50468 13.6215L26.2453 11.5684C27.6703 11.5684 28.8281 12.7074 28.8281 14.109V43.6402C28.8281 45.0371 27.675 46.1762 26.2453 46.1762Z" fill="#F44336"/>
<path d="M36.9141 39.2246H23.0953L22.6735 46.5043L26.986 46.9074C26.986 46.9074 27.9094 49.2137 30 49.2137C32.0906 49.2137 33.0141 46.9074 33.0141 46.9074L37.3266 46.5043L36.9141 39.2246Z" fill="#424242"/>
<path d="M37.2844 47.0764L33.2672 46.7295M22.7156 47.0764L26.7328 46.7295" stroke="#616161" stroke-width="0.3125" stroke-miterlimit="10"/>
<path d="M56.0859 15.3848L54.2109 12.8066L30 40.3223L5.78905 12.8066L3.91405 15.3848L3.65155 46.0176C3.65155 46.0176 8.62967 46.641 15.2812 45.966C21.075 45.3801 23.8031 43.8801 25.739 44.2691C28.0641 44.7379 28.4859 46.1676 28.5609 46.4113C28.7719 47.0863 29.1891 47.6113 30 47.6113C30.8109 47.6113 31.1719 47.3301 31.4203 46.4957C31.4953 46.252 31.9359 44.7426 34.2609 44.2738C36.1969 43.8848 38.925 45.3848 44.7187 45.9707C51.3703 46.6457 56.3484 46.0223 56.3484 46.0223L56.0859 15.3848Z" fill="#94C6D6"/>
<path d="M53.5781 43.0637L53.6531 30.6934H56.2172L56.3484 46.0168C56.3484 46.0168 54.3094 45.2246 53.5781 43.0637Z" fill="url(#paint0_linear_3657_7577)"/>
<path d="M53.6953 35.8545L53.5781 43.0686C53.5781 43.0686 47.9719 42.7779 39.0422 41.2311C33.2016 40.2186 30 43.4623 30 43.4623L29.9484 35.8545H53.6953Z" fill="url(#paint1_linear_3657_7577)"/>
<path d="M6.30469 35.8545L6.42188 43.0686C6.42188 43.0686 12.0281 42.7779 20.9578 41.2311C26.7984 40.2186 30 43.4623 30 43.4623L29.9484 35.8545H6.30469Z" fill="url(#paint2_linear_3657_7577)"/>
<path d="M6.42186 43.0637L6.34686 30.6934H3.77811L3.65155 46.0168C3.65155 46.0168 5.68593 45.2246 6.42186 43.0637Z" fill="url(#paint3_linear_3657_7577)"/>
<path d="M54.2109 12.8062C54.2109 12.8062 41.7703 10.4671 36.3094 10.1624C31.1719 9.87649 30.1172 12.4921 30.0141 12.8062H29.9953C29.8875 12.4921 28.8328 9.88118 23.6953 10.1624C18.2344 10.4671 5.79376 12.8062 5.79376 12.8062L5.24063 42.9937C5.24063 42.9937 20.0531 39.8905 23.6391 40.2937C27.225 40.6968 30 43.4624 30 43.4624C30 43.4624 32.7797 40.6968 36.3656 40.2937C39.9516 39.8905 54.7641 42.9937 54.7641 42.9937L54.2109 12.8062Z" fill="#F5F5F5"/>
<path opacity="0.26" d="M25.1344 10.167L22.6031 40.2607C23.0016 40.2514 23.3531 40.2607 23.6344 40.2936C27.2156 40.692 30 43.4623 30 43.4623L29.9203 12.8061C29.9203 12.8061 29.311 10.4061 25.1344 10.167Z" fill="#94C6D6"/>
<path opacity="0.5" d="M11.8641 14.1471C10.5984 14.3674 9.56249 14.5549 8.97187 14.6581C8.97187 14.9487 8.97187 15.2674 8.96718 15.6096C9.48749 15.5159 10.5469 15.3237 11.8641 15.094V14.1471ZM23.2734 12.6378V13.5706C25.7719 13.5659 27.1547 14.194 27.6094 14.4471C27.6094 14.0581 27.6141 13.7112 27.6141 13.4065C26.8406 13.0596 25.425 12.6331 23.2734 12.6378ZM21.2391 12.7549C19.2094 12.9612 16.3828 13.3924 13.8984 13.8049V14.7565C16.3641 14.3487 19.1953 13.9128 21.2391 13.6971V12.7549ZM16.2469 16.8003C13.2187 17.269 10.1812 17.8128 8.96249 18.0331V18.9846C10.0219 18.7924 13.1297 18.2299 16.2469 17.7471V16.8003ZM21.8859 16.069C20.8969 16.1487 19.6359 16.3081 18.2812 16.4956V17.4424C19.6641 17.2456 20.9578 17.0862 21.9609 17.0018C25.3266 16.7253 27.1031 17.5503 27.6 17.8315V16.7862C26.6812 16.3784 24.8391 15.8253 21.8859 16.069ZM12.3656 20.8081C10.8844 21.0612 9.64687 21.2815 8.96249 21.4081V22.3596C9.57656 22.2471 10.8328 22.0221 12.3656 21.7596V20.8081ZM27.6 20.1753C26.6859 19.7628 24.8391 19.2003 21.8578 19.4487C19.95 19.6034 17.0297 20.0393 14.4 20.4706V21.4221C17.0531 20.9862 20.0156 20.5456 21.9375 20.3862C25.3594 20.1049 27.1406 20.9628 27.6 21.2299V20.1753ZM27.6047 23.5643C26.7 23.1518 24.8437 22.5753 21.8391 22.8237C21.5344 22.8471 21.2062 22.8799 20.8594 22.9174V23.8596C21.2391 23.8174 21.5906 23.7846 21.9187 23.7565C25.4062 23.4706 27.1875 24.3659 27.6094 24.619C27.6047 24.2674 27.6047 23.9159 27.6047 23.5643ZM18.8203 23.1706C15.1547 23.6721 10.5891 24.4831 8.96718 24.7784V25.7299C10.3969 25.4674 15.0703 24.6284 18.8203 24.1128V23.1706ZM13.2422 27.4081C11.4 27.7174 9.80624 28.0034 8.96718 28.1534V29.1049C9.72656 28.9643 11.3437 28.6737 13.2422 28.3549V27.4081ZM27.6094 26.9581C26.7141 26.5456 24.8484 25.9549 21.8156 26.2034C20.1281 26.344 17.6531 26.6956 15.2812 27.0753V28.0221C17.6766 27.6378 20.1937 27.2768 21.8906 27.1362C25.4672 26.8409 27.2531 27.7971 27.6094 28.0128V26.9581ZM27.6187 33.7409C26.7656 33.3331 24.9187 32.719 21.8719 32.9487V33.8909C25.7578 33.5768 27.5203 34.7393 27.6187 34.8096V33.7409ZM12.3656 34.3034C10.9219 34.5518 9.69374 34.7674 8.97656 34.8987V35.8503C9.63749 35.7284 10.875 35.5081 12.3656 35.2503V34.3034ZM14.4 33.9659V34.9174C16.2187 34.6221 18.1734 34.3221 19.8375 34.1112V33.1643C18.1828 33.3706 16.2281 33.6659 14.4 33.9659ZM17.6578 36.8346C14.3016 37.3221 10.5281 37.9924 8.98124 38.2737V39.2253C10.3828 38.9674 14.2266 38.2831 17.6578 37.7815V36.8346ZM27.6234 37.1346C26.775 36.7221 24.8859 36.0799 21.7359 36.3378C21.1406 36.3846 20.4469 36.4643 19.6922 36.5581V37.5003C20.475 37.4018 21.1969 37.3221 21.8109 37.2706C25.8234 36.9378 27.5859 38.1846 27.6047 38.194L27.6281 38.1659C27.6281 37.8424 27.6281 37.5003 27.6234 37.1346ZM16.9594 30.1878C13.7625 30.6659 10.3734 31.2706 8.97187 31.5284V32.4799C10.2281 32.2503 13.6828 31.6315 16.9594 31.1346V30.1878ZM27.6141 30.3471C26.7328 29.9346 24.8625 29.3253 21.7875 29.5784C21 29.644 20.0391 29.7565 18.9984 29.8971V30.844C20.0719 30.6987 21.0609 30.5815 21.8672 30.5159C25.5609 30.2112 27.3469 31.2378 27.6187 31.4112C27.6141 31.0643 27.6141 30.7081 27.6141 30.3471ZM41.4422 13.9268C45.3234 14.4424 50.3953 15.3612 51.7734 15.6096C51.7734 15.2628 51.7734 14.9487 51.7687 14.6581C50.1562 14.3628 45.2203 13.4815 41.4375 12.9799V13.9268H41.4422ZM39.4031 12.7456C39.2016 12.7268 39.0094 12.7081 38.8266 12.694C35.8875 12.4503 34.05 12.9987 33.1266 13.4065C33.1266 13.7112 33.1312 14.0628 33.1312 14.4471C33.6562 14.1565 35.4328 13.3549 38.7516 13.6268C38.9578 13.6456 39.1781 13.6643 39.4031 13.6878V12.7456ZM47.9812 18.319C49.2482 18.5347 50.5139 18.7581 51.7781 18.9893V18.0378C51.0422 17.9018 49.6453 17.6534 47.9812 17.3721V18.319ZM45.9469 17.0299C43.4109 16.6221 40.6734 16.219 38.8547 16.069C35.9016 15.8253 34.0594 16.3784 33.1359 16.7862V17.8315C33.6328 17.5503 35.4094 16.7253 38.775 17.0018C40.6078 17.1518 43.3875 17.5643 45.9422 17.9768V17.0299H45.9469ZM45.5531 20.3393V21.2862C48.2766 21.7221 50.8125 22.1815 51.7781 22.3596V21.4081C50.6859 21.2112 48.1969 20.7659 45.5531 20.3393ZM41.4375 23.1096C40.4953 22.9878 39.6234 22.8846 38.9016 22.8284C35.8969 22.5799 34.0406 23.1565 33.1359 23.569V24.6237C33.5578 24.3753 35.3437 23.4753 38.8266 23.7612C39.5672 23.8221 40.4672 23.9253 41.4375 24.0565V23.1096ZM43.4766 23.3956V24.3424C46.875 24.8487 50.5359 25.5096 51.7734 25.7346V24.7831C50.3766 24.5253 46.7906 23.8878 43.4766 23.3956ZM43.8891 26.8315C42.0375 26.5503 40.2422 26.3112 38.9297 26.2034C35.8922 25.9549 34.0266 26.5456 33.1359 26.9581V28.0174C33.4922 27.7971 35.2781 26.8456 38.8547 27.1409C40.1812 27.2487 42.0141 27.4971 43.8937 27.7831V26.8315H43.8891ZM45.9234 27.1503V28.1018C48.4734 28.5143 50.8078 28.9362 51.7687 29.1096V28.1581C50.7 27.9612 48.4031 27.5487 45.9234 27.1503ZM49.2375 31.0784V32.0299C50.3437 32.2221 51.2484 32.3862 51.7641 32.4799V31.5284C51.2016 31.4253 50.3109 31.2659 49.2375 31.0784ZM41.8547 33.2862C40.7812 33.1409 39.7875 33.0237 38.9812 32.9581C35.8687 32.7003 33.9891 33.3284 33.1266 33.7409V34.8096C33.225 34.7393 34.9969 33.5674 38.9109 33.8909C39.7359 33.9565 40.7578 34.0784 41.8641 34.2284V33.2862H41.8547ZM43.8891 33.5768V34.5237C47.1141 35.0112 50.4984 35.6206 51.7641 35.8503V34.8987C50.3578 34.6456 47.0391 34.0549 43.8891 33.5768ZM45.5531 37.2096C43.1766 36.8299 40.6922 36.4737 39.0047 36.3331C35.85 36.0753 33.9656 36.7221 33.1172 37.1299V38.1612L33.1406 38.1893C33.1547 38.1799 34.9172 36.9331 38.9344 37.2659C40.6359 37.4065 43.1625 37.7721 45.5625 38.1565V37.2096H45.5531ZM47.5922 37.5471V38.4987C49.4156 38.8034 50.9719 39.0846 51.7594 39.2299V38.2784C50.9016 38.119 49.3641 37.8424 47.5922 37.5471ZM38.8734 29.5737C35.8453 29.3346 33.9984 29.9393 33.1266 30.3471V31.4112C33.3984 31.2378 35.1797 30.2112 38.8734 30.5159V29.5737ZM40.9125 29.7893V30.7315C42.8437 30.9753 45.1641 31.3409 47.2031 31.6784V30.7268C45.15 30.3893 42.8297 30.0284 40.9125 29.7893ZM37.3687 19.3924C35.2687 19.4065 33.8859 19.8378 33.1406 20.1753V21.2253C33.5344 21.0003 34.8797 20.3487 37.3687 20.3253V19.3924ZM39.4031 19.4956V20.4378C40.5703 20.5549 42.0187 20.7518 43.5141 20.9721V20.0253C42.0141 19.8003 40.5703 19.6081 39.4031 19.4956Z" fill="#757575"/>
<path d="M33.3562 46.1481C32.8312 46.1012 32.3484 46.4246 32.1797 46.9262C31.9265 47.6902 31.3359 48.6887 30 48.6887C28.65 48.6887 28.0547 47.6856 27.7969 46.9215C27.7166 46.682 27.5586 46.4763 27.3479 46.337C27.1373 46.1977 26.8861 46.1329 26.6344 46.1527L26.4515 46.1668L26.4562 46.3168C26.4562 47.2554 26.8291 48.1556 27.4928 48.8193C28.1565 49.483 29.0567 49.8559 29.9953 49.8559C30.9339 49.8559 31.8341 49.483 32.4978 48.8193C33.1615 48.1556 33.5344 47.2554 33.5344 46.3168C33.5344 46.2699 33.5297 46.1621 33.5297 46.1621L33.3562 46.1481Z" fill="#616161"/>
<defs>
<linearGradient id="paint0_linear_3657_7577" x1="54.9577" y1="41.3438" x2="55.0734" y2="33.233" gradientUnits="userSpaceOnUse">
<stop offset="0.267" stop-color="#82AEC0"/>
<stop offset="1" stop-color="#82AEC0" stop-opacity="0"/>
</linearGradient>
<linearGradient id="paint1_linear_3657_7577" x1="32.7736" y1="39.6565" x2="52.8412" y2="39.6565" gradientUnits="userSpaceOnUse">
<stop stop-color="#2F7889"/>
<stop offset="1" stop-color="#82AEC0"/>
</linearGradient>
<linearGradient id="paint2_linear_3657_7577" x1="27.1777" y1="39.6565" x2="7.15453" y2="39.6565" gradientUnits="userSpaceOnUse">
<stop stop-color="#2F7889"/>
<stop offset="1" stop-color="#82AEC0"/>
</linearGradient>
<linearGradient id="paint3_linear_3657_7577" x1="5.04046" y1="41.3438" x2="4.92421" y2="33.233" gradientUnits="userSpaceOnUse">
<stop offset="0.267" stop-color="#82AEC0"/>
<stop offset="1" stop-color="#82AEC0" stop-opacity="0"/>
</linearGradient>
</defs>
</svg>
