<svg width="20" height="20" viewBox="0 0 20 20" fill="none" xmlns="http://www.w3.org/2000/svg">
<path d="M6.00838 12.5003L2.21671 5.95033C2.05321 5.66772 1.97632 5.34332 1.99558 5.01739C2.01484 4.69147 2.1294 4.37838 2.32504 4.11699L3.66671 2.33366C3.82196 2.12667 4.02326 1.95866 4.25469 1.84295C4.48611 1.72723 4.7413 1.66699 5.00005 1.66699H15C15.2588 1.66699 15.514 1.72723 15.7454 1.84295C15.9768 1.95866 16.1781 2.12667 16.3334 2.33366L17.6667 4.11699C17.8636 4.37753 17.9797 4.6902 18.0004 5.01613C18.0212 5.34207 17.9457 5.66692 17.7834 5.95033L13.9917 12.5003" stroke="#834F2E" stroke-width="1.66667" stroke-linecap="round" stroke-linejoin="round"/>
<path d="M9.1666 9.99968L4.2666 1.83301" stroke="#834F2E" stroke-width="1.66667" stroke-linecap="round" stroke-linejoin="round"/>
<path d="M10.8333 9.99968L15.7333 1.83301" stroke="#834F2E" stroke-width="1.66667" stroke-linecap="round" stroke-linejoin="round"/>
<path d="M6.66675 5.83301H13.3334" stroke="#834F2E" stroke-width="1.66667" stroke-linecap="round" stroke-linejoin="round"/>
<path d="M9.99992 18.3333C12.3011 18.3333 14.1666 16.4679 14.1666 14.1667C14.1666 11.8655 12.3011 10 9.99992 10C7.69873 10 5.83325 11.8655 5.83325 14.1667C5.83325 16.4679 7.69873 18.3333 9.99992 18.3333Z" stroke="#834F2E" stroke-width="1.66667" stroke-linecap="round" stroke-linejoin="round"/>
<path d="M9.61914 14.3184H9.92969C10.0182 14.3184 10.0911 14.3027 10.1484 14.2715C10.207 14.2402 10.25 14.196 10.2773 14.1387C10.306 14.0814 10.3203 14.0143 10.3203 13.9375C10.3203 13.8711 10.3073 13.8118 10.2812 13.7598C10.2552 13.7077 10.2155 13.6667 10.1621 13.6367C10.11 13.6055 10.0423 13.5898 9.95898 13.5898C9.89909 13.5898 9.8418 13.6022 9.78711 13.627C9.73372 13.6504 9.6901 13.6849 9.65625 13.7305C9.6224 13.7747 9.60547 13.8281 9.60547 13.8906H8.99414C8.99414 13.7318 9.03711 13.5944 9.12305 13.4785C9.21029 13.3626 9.32552 13.2734 9.46875 13.2109C9.61328 13.1471 9.77083 13.1152 9.94141 13.1152C10.138 13.1152 10.3105 13.1465 10.459 13.209C10.6087 13.2702 10.7246 13.3613 10.8066 13.4824C10.89 13.6022 10.9316 13.7507 10.9316 13.9277C10.9316 14.0202 10.9095 14.1094 10.8652 14.1953C10.8223 14.2799 10.7604 14.3555 10.6797 14.4219C10.6003 14.487 10.5052 14.5391 10.3945 14.5781C10.2852 14.6159 10.1634 14.6348 10.0293 14.6348H9.61914V14.3184ZM9.61914 14.7773V14.4668H10.0293C10.1777 14.4668 10.3105 14.4837 10.4277 14.5176C10.5449 14.5514 10.6445 14.6003 10.7266 14.6641C10.8086 14.7279 10.8711 14.8053 10.9141 14.8965C10.957 14.9876 10.9785 15.0892 10.9785 15.2012C10.9785 15.334 10.9525 15.4525 10.9004 15.5566C10.8483 15.6608 10.7754 15.7487 10.6816 15.8203C10.5879 15.8919 10.4779 15.9466 10.3516 15.9844C10.2253 16.0208 10.0885 16.0391 9.94141 16.0391C9.82292 16.0391 9.70508 16.0228 9.58789 15.9902C9.4707 15.9577 9.36458 15.9082 9.26953 15.8418C9.17448 15.7741 9.09831 15.6888 9.04102 15.5859C8.98372 15.4818 8.95508 15.3581 8.95508 15.2148H9.56641C9.56641 15.2812 9.58333 15.3411 9.61719 15.3945C9.65234 15.4466 9.69987 15.4883 9.75977 15.5195C9.82096 15.5495 9.88737 15.5645 9.95898 15.5645C10.0449 15.5645 10.1178 15.5488 10.1777 15.5176C10.2389 15.485 10.2852 15.4408 10.3164 15.3848C10.349 15.3288 10.3652 15.2643 10.3652 15.1914C10.3652 15.0924 10.3477 15.013 10.3125 14.9531C10.2786 14.8919 10.2292 14.8477 10.1641 14.8203C10.099 14.7917 10.0208 14.7773 9.92969 14.7773H9.61914Z" fill="#834F2E"/>
</svg>
