<svg width="20" height="20" viewBox="0 0 20 20" fill="none" xmlns="http://www.w3.org/2000/svg">
<path d="M6.00838 12.5003L2.21671 5.95033C2.05321 5.66772 1.97632 5.34332 1.99558 5.01739C2.01484 4.69147 2.1294 4.37838 2.32504 4.11699L3.66671 2.33366C3.82196 2.12667 4.02326 1.95866 4.25469 1.84295C4.48611 1.72723 4.7413 1.66699 5.00005 1.66699H15C15.2588 1.66699 15.514 1.72723 15.7454 1.84295C15.9768 1.95866 16.1781 2.12667 16.3334 2.33366L17.6667 4.11699C17.8636 4.37753 17.9797 4.6902 18.0004 5.01613C18.0212 5.34207 17.9457 5.66692 17.7834 5.95033L13.9917 12.5003" stroke="#868E9D" stroke-width="1.66667" stroke-linecap="round" stroke-linejoin="round"/>
<path d="M9.1666 9.99968L4.2666 1.83301" stroke="#868E9D" stroke-width="1.66667" stroke-linecap="round" stroke-linejoin="round"/>
<path d="M10.8333 9.99968L15.7333 1.83301" stroke="#868E9D" stroke-width="1.66667" stroke-linecap="round" stroke-linejoin="round"/>
<path d="M6.66675 5.83301H13.3334" stroke="#868E9D" stroke-width="1.66667" stroke-linecap="round" stroke-linejoin="round"/>
<path d="M9.99992 18.3333C12.3011 18.3333 14.1666 16.4679 14.1666 14.1667C14.1666 11.8655 12.3011 10 9.99992 10C7.69873 10 5.83325 11.8655 5.83325 14.1667C5.83325 16.4679 7.69873 18.3333 9.99992 18.3333Z" stroke="#868E9D" stroke-width="1.66667" stroke-linecap="round" stroke-linejoin="round"/>
<path d="M10.9961 15.5254V16H9.03125V15.5977L9.94922 14.625C10.0352 14.526 10.1035 14.4388 10.1543 14.3633C10.2064 14.2878 10.2441 14.2194 10.2676 14.1582C10.291 14.0957 10.3027 14.0384 10.3027 13.9863C10.3027 13.9017 10.2891 13.8301 10.2617 13.7715C10.2357 13.7129 10.1973 13.668 10.1465 13.6367C10.0957 13.6055 10.0339 13.5898 9.96094 13.5898C9.88281 13.5898 9.81576 13.61 9.75977 13.6504C9.70378 13.6908 9.66081 13.7467 9.63086 13.8184C9.60091 13.8887 9.58594 13.9688 9.58594 14.0586H8.97266C8.97266 13.8854 9.01432 13.7279 9.09766 13.5859C9.18099 13.4427 9.29753 13.3288 9.44727 13.2441C9.59701 13.1582 9.77214 13.1152 9.97266 13.1152C10.1784 13.1152 10.3509 13.1478 10.4902 13.2129C10.6296 13.278 10.735 13.3711 10.8066 13.4922C10.8783 13.6133 10.9141 13.7591 10.9141 13.9297C10.9141 14.026 10.8984 14.1191 10.8672 14.209C10.8372 14.2988 10.7936 14.388 10.7363 14.4766C10.679 14.5651 10.61 14.6556 10.5293 14.748C10.4486 14.8392 10.3574 14.9355 10.2559 15.0371L9.82617 15.5254H10.9961Z" fill="#868E9D"/>
</svg>
