<svg width="28" height="28" viewBox="0 0 28 28" fill="none" xmlns="http://www.w3.org/2000/svg">
<path d="M13.4889 3.81077C13.5393 3.71931 13.6133 3.64305 13.7031 3.58993C13.793 3.53681 13.8955 3.50879 13.9999 3.50879C14.1043 3.50879 14.2068 3.53681 14.2967 3.58993C14.3866 3.64305 14.4606 3.71931 14.5109 3.81077L17.9549 10.3488C18.0371 10.5002 18.1517 10.6315 18.2906 10.7333C18.4295 10.8352 18.5892 10.905 18.7583 10.9378C18.9274 10.9706 19.1016 10.9655 19.2685 10.923C19.4354 10.8804 19.5908 10.8015 19.7236 10.6918L24.7134 6.41711C24.8092 6.3392 24.9272 6.29369 25.0505 6.28714C25.1738 6.28059 25.296 6.31333 25.3995 6.38064C25.503 6.44796 25.5825 6.54638 25.6265 6.66175C25.6705 6.77711 25.6768 6.90346 25.6444 7.02261L22.3381 18.9763C22.2706 19.2209 22.1252 19.4368 21.9239 19.5914C21.7227 19.7459 21.4765 19.8306 21.2228 19.8326H6.77826C6.52432 19.8308 6.27789 19.7463 6.07638 19.5917C5.87488 19.4372 5.7293 19.2211 5.66176 18.9763L2.35659 7.02377C2.32422 6.90462 2.33048 6.77827 2.37449 6.66291C2.4185 6.54755 2.49797 6.44913 2.60148 6.38181C2.70498 6.31449 2.82718 6.28176 2.95047 6.28831C3.07377 6.29486 3.1918 6.34037 3.28759 6.41827L8.27626 10.6929C8.40902 10.8027 8.56443 10.8816 8.73133 10.9241C8.89823 10.9667 9.07248 10.9717 9.24156 10.9389C9.41064 10.9062 9.57037 10.8363 9.70927 10.7345C9.84817 10.6327 9.9628 10.5013 10.0449 10.3499L13.4889 3.81077Z" stroke="#FFD700" stroke-width="2.33333" stroke-linecap="round" stroke-linejoin="round"/>
<path d="M5.83325 24.5H22.1666" stroke="#FFD700" stroke-width="2.33333" stroke-linecap="round" stroke-linejoin="round"/>
</svg>
